<svg id="visual" viewBox="0 0 900 600" width="900" height="600" xmlns="http://www.w3.org/2000/svg" xmlns:xlink="http://www.w3.org/1999/xlink" version="1.1"><rect x="0" y="0" width="900" height="600" fill="#030303"></rect><defs><linearGradient id="grad1_0" x1="33.3%" y1="0%" x2="100%" y2="100%"><stop offset="20%" stop-color="#030303" stop-opacity="1"></stop><stop offset="80%" stop-color="#030303" stop-opacity="1"></stop></linearGradient></defs><defs><linearGradient id="grad2_0" x1="0%" y1="0%" x2="66.7%" y2="100%"><stop offset="20%" stop-color="#030303" stop-opacity="1"></stop><stop offset="80%" stop-color="#030303" stop-opacity="1"></stop></linearGradient></defs><g transform="translate(900, 0)"><path d="M0 351.5C-47.5 318.7 -95 285.9 -150.5 260.7C-206 235.5 -269.6 217.9 -304.4 175.8C-339.3 133.6 -345.4 66.8 -351.5 0L0 0Z" fill="#1a47cc" fill-opacity="0.5"></path></g><g transform="translate(0, 600)"><path d="M0 -351.5C68.9 -346.6 137.8 -341.7 175.8 -304.4C213.8 -267.2 220.9 -197.6 245.1 -141.5C269.2 -85.4 310.4 -42.7 351.5 0L0 0Z" fill="#1a47cc" fill-opacity="0.5"></path></g></svg>