<svg id="visual" viewBox="0 0 900 600" width="900" height="600" xmlns="http://www.w3.org/2000/svg" xmlns:xlink="http://www.w3.org/1999/xlink" version="1.1"><rect x="0" y="0" width="900" height="600" fill="#030303"></rect><defs><linearGradient id="grad1_0" x1="33.3%" y1="100%" x2="100%" y2="0%"><stop offset="20%" stop-color="#030303" stop-opacity="1"></stop><stop offset="80%" stop-color="#030303" stop-opacity="1"></stop></linearGradient></defs><defs><linearGradient id="grad2_0" x1="0%" y1="100%" x2="66.7%" y2="0%"><stop offset="20%" stop-color="#030303" stop-opacity="1"></stop><stop offset="80%" stop-color="#030303" stop-opacity="1"></stop></linearGradient></defs><g transform="translate(900, 600)"><path d="M-351.5 0C-330.7 -54.4 -309.9 -108.8 -283.2 -163.5C-256.5 -218.2 -223.9 -273.1 -175.8 -304.4C-127.6 -335.8 -63.8 -343.7 0 -351.5L0 0Z" fill="#2667ff"></path></g><g transform="translate(0, 0)"><path d="M351.5 0C345.9 67.7 340.4 135.4 304.4 175.8C268.5 216.1 202.3 229 146.5 253.7C90.7 278.5 45.4 315 0 351.5L0 0Z" fill="#2667ff"></path></g></svg>