<svg id="visual" viewBox="0 0 900 600" width="900" height="600" xmlns="http://www.w3.org/2000/svg" xmlns:xlink="http://www.w3.org/1999/xlink" version="1.1"><rect x="0" y="0" width="900" height="600" fill="#030303"></rect><path d="M0 454L21.5 455.2C43 456.3 86 458.7 128.8 455C171.7 451.3 214.3 441.7 257.2 442.7C300 443.7 343 455.3 385.8 463C428.7 470.7 471.3 474.3 514.2 473.8C557 473.3 600 468.7 642.8 461.7C685.7 454.7 728.3 445.3 771.2 439.3C814 433.3 857 430.7 878.5 429.3L900 428L900 601L878.5 601C857 601 814 601 771.2 601C728.3 601 685.7 601 642.8 601C600 601 557 601 514.2 601C471.3 601 428.7 601 385.8 601C343 601 300 601 257.2 601C214.3 601 171.7 601 128.8 601C86 601 43 601 21.5 601L0 601Z" fill="#224fb7"></path><path d="M0 490L21.5 489C43 488 86 486 128.8 487.2C171.7 488.3 214.3 492.7 257.2 488.8C300 485 343 473 385.8 463.5C428.7 454 471.3 447 514.2 449C557 451 600 462 642.8 469.3C685.7 476.7 728.3 480.3 771.2 475.2C814 470 857 456 878.5 449L900 442L900 601L878.5 601C857 601 814 601 771.2 601C728.3 601 685.7 601 642.8 601C600 601 557 601 514.2 601C471.3 601 428.7 601 385.8 601C343 601 300 601 257.2 601C214.3 601 171.7 601 128.8 601C86 601 43 601 21.5 601L0 601Z" fill="#2255c9"></path><path d="M0 471L21.5 471C43 471 86 471 128.8 477C171.7 483 214.3 495 257.2 503C300 511 343 515 385.8 516.8C428.7 518.7 471.3 518.3 514.2 516.2C557 514 600 510 642.8 502.2C685.7 494.3 728.3 482.7 771.2 482C814 481.3 857 491.7 878.5 496.8L900 502L900 601L878.5 601C857 601 814 601 771.2 601C728.3 601 685.7 601 642.8 601C600 601 557 601 514.2 601C471.3 601 428.7 601 385.8 601C343 601 300 601 257.2 601C214.3 601 171.7 601 128.8 601C86 601 43 601 21.5 601L0 601Z" fill="#235bdb"></path><path d="M0 515L21.5 516.8C43 518.7 86 522.3 128.8 527.7C171.7 533 214.3 540 257.2 541.8C300 543.7 343 540.3 385.8 536.7C428.7 533 471.3 529 514.2 530.3C557 531.7 600 538.3 642.8 538.7C685.7 539 728.3 533 771.2 526.7C814 520.3 857 513.7 878.5 510.3L900 507L900 601L878.5 601C857 601 814 601 771.2 601C728.3 601 685.7 601 642.8 601C600 601 557 601 514.2 601C471.3 601 428.7 601 385.8 601C343 601 300 601 257.2 601C214.3 601 171.7 601 128.8 601C86 601 43 601 21.5 601L0 601Z" fill="#2461ed"></path><path d="M0 574L21.5 574.5C43 575 86 576 128.8 576C171.7 576 214.3 575 257.2 570.7C300 566.3 343 558.7 385.8 554C428.7 549.3 471.3 547.7 514.2 549.3C557 551 600 556 642.8 559.7C685.7 563.3 728.3 565.7 771.2 566.2C814 566.7 857 565.3 878.5 564.7L900 564L900 601L878.5 601C857 601 814 601 771.2 601C728.3 601 685.7 601 642.8 601C600 601 557 601 514.2 601C471.3 601 428.7 601 385.8 601C343 601 300 601 257.2 601C214.3 601 171.7 601 128.8 601C86 601 43 601 21.5 601L0 601Z" fill="#2667ff"></path></svg>